<svg width="815" height="269" viewBox="0 0 815 269" fill="none" xmlns="http://www.w3.org/2000/svg">
<path d="M39.6 87L40.4365 86.452L40.4365 86.452L39.6 87ZM58 106.6L57.4048 107.404L57.4214 107.416L57.4385 107.427L58 106.6ZM88.4 125.8L87.8829 126.656L87.8831 126.656L88.4 125.8ZM120.8 147L120.2 147.8L120.207 147.805L120.213 147.81L120.8 147ZM140.4 168.6L139.545 169.118L139.554 169.134L139.564 169.149L140.4 168.6ZM110.8 259L111.231 259.902L111.24 259.898L110.8 259ZM10 253.8L9.48551 254.657L9.50265 254.668L9.52019 254.677L10 253.8ZM7.2 251L6.22986 251.243L6.25648 251.349L6.30557 251.447L7.2 251ZM6.4 246.2L5.40454 246.295L5.40592 246.31L5.40772 246.324L6.4 246.2ZM1.2 191.8L2.19546 191.705L2.18833 191.63L2.17014 191.557L1.2 191.8ZM2.8 189.8L2.6356 188.814L2.6197 188.816L2.60389 188.819L2.8 189.8ZM5.6 191L6.57619 190.783L6.57333 190.77L6.57014 190.757L5.6 191ZM29.2 240.6L28.4293 241.237L28.4366 241.246L29.2 240.6ZM109.2 250.6L109.822 251.383L109.825 251.381L109.2 250.6ZM115.2 184.2L116.055 183.682L116.055 183.682L115.2 184.2ZM95.6 162.6L94.9822 163.386L94.9976 163.398L95.0135 163.41L95.6 162.6ZM64.8 142.2L64.2829 143.056L64.2907 143.061L64.8 142.2ZM34.4 122.2L33.7861 122.989L33.793 122.995L33.8 123L34.4 122.2ZM16 101L16.8599 100.489L16.8599 100.489L16 101ZM18.8 37L18 36.4L17.9973 36.4037L18.8 37ZM46.4 15.8L46.7752 16.727L46.7861 16.7224L46.4 15.8ZM129.6 18.2L129.218 19.124L129.25 19.1375L129.284 19.1487L129.6 18.2ZM135.6 25H134.6V25.0304L134.602 25.0607L135.6 25ZM138.4 71H139.4V70.9696L139.398 70.9392L138.4 71ZM134 71L133.012 71.152L133.019 71.1977L133.03 71.2425L134 71ZM116.8 32.6L116.011 33.214L116.017 33.2225L116.8 32.6ZM42.8 27.8L42.0375 27.153L42.0357 27.1551L42.8 27.8ZM31 59.8C31 70.3696 33.5772 79.632 38.7635 87.548L40.4365 86.452C35.4895 78.9013 33 70.0304 33 59.8H31ZM38.7635 87.548C43.8928 95.3769 50.1069 101.998 57.4048 107.404L58.5952 105.796C51.4931 100.536 45.4405 94.0897 40.4365 86.452L38.7635 87.548ZM57.4385 107.427C64.926 112.508 75.0762 118.919 87.8829 126.656L88.9171 124.944C76.1238 117.215 66.0073 110.825 58.5615 105.773L57.4385 107.427ZM87.8831 126.656C102.006 135.183 112.773 142.23 120.2 147.8L121.4 146.2C113.894 140.57 103.061 133.484 88.9169 124.944L87.8831 126.656ZM120.213 147.81C127.831 153.326 134.275 160.424 139.545 169.118L141.255 168.082C135.858 159.176 129.236 151.874 121.387 146.19L120.213 147.81ZM139.564 169.149C145.039 177.492 147.8 187.56 147.8 199.4H149.8C149.8 187.24 146.961 176.775 141.236 168.051L139.564 169.149ZM147.8 199.4C147.8 212.024 144.647 223.441 138.348 233.676L140.052 234.724C146.553 224.159 149.8 212.376 149.8 199.4H147.8ZM138.348 233.676C132.061 243.893 122.749 252.039 110.36 258.102L111.24 259.898C123.918 253.694 133.539 245.307 140.052 234.724L138.348 233.676ZM110.369 258.098C98.2683 263.885 83.6237 266.8 66.4 266.8V268.8C83.843 268.8 98.7983 265.848 111.231 259.902L110.369 258.098ZM66.4 266.8C46.0247 266.8 27.3911 262.171 10.4798 252.923L9.52019 254.677C26.7422 264.096 45.7086 268.8 66.4 268.8V266.8ZM10.5145 252.943C9.29553 252.211 8.52045 251.405 8.09443 250.553L6.30557 251.447C6.94622 252.729 8.0378 253.789 9.48551 254.657L10.5145 252.943ZM8.17014 250.757C7.91853 249.751 7.65771 248.199 7.39228 246.076L5.40772 246.324C5.67562 248.467 5.94814 250.116 6.22986 251.243L8.17014 250.757ZM7.39546 246.105L2.19546 191.705L0.204539 191.895L5.40454 246.295L7.39546 246.105ZM2.17014 191.557C2.08865 191.231 2.16334 191.147 2.18087 191.125C2.23539 191.057 2.43152 190.893 2.99612 190.781L2.60389 188.819C1.83515 188.973 1.09795 189.277 0.619132 189.875C0.103329 190.52 0.0446855 191.302 0.229859 192.043L2.17014 191.557ZM2.9644 190.786C3.67843 190.667 4.09126 190.727 4.30608 190.819C4.45907 190.885 4.56507 190.983 4.62986 191.243L6.57014 190.757C6.36827 189.95 5.87426 189.315 5.09392 188.981C4.37541 188.673 3.52158 188.666 2.6356 188.814L2.9644 190.786ZM4.62381 191.217C8.92154 210.557 16.8528 227.238 28.4294 241.237L29.9706 239.963C18.6139 226.229 10.8118 209.843 6.57619 190.783L4.62381 191.217ZM28.4366 241.246C40.372 255.351 56.125 262.4 75.6 262.4V260.4C56.675 260.4 41.4947 253.582 29.9634 239.954L28.4366 241.246ZM75.6 262.4C89.1233 262.4 100.552 258.744 109.822 251.383L108.578 249.817C99.7145 256.856 88.7434 260.4 75.6 260.4V262.4ZM109.825 251.381C119.47 243.665 124.2 231.594 124.2 215.4H122.2C122.2 231.206 117.597 242.602 108.575 249.819L109.825 251.381ZM124.2 215.4C124.2 203.248 121.498 192.662 116.055 183.682L114.345 184.718C119.569 193.338 122.2 203.552 122.2 215.4H124.2ZM116.055 183.682C110.658 174.776 104.036 167.474 96.1865 161.79L95.0135 163.41C102.631 168.926 109.075 176.024 114.345 184.718L116.055 183.682ZM96.2178 161.814C88.7026 155.909 78.3943 149.084 65.3093 141.339L64.2907 143.061C77.3391 150.783 87.5641 157.558 94.9822 163.386L96.2178 161.814ZM65.3171 141.344C52.5309 133.619 42.4291 126.972 35 121.4L33.8 123C41.3043 128.628 51.4691 135.314 64.2829 143.056L65.3171 141.344ZM35.0139 121.411C27.921 115.894 21.8683 108.925 16.8599 100.489L15.1401 101.511C20.265 110.142 26.479 117.306 33.7861 122.989L35.0139 121.411ZM16.8599 100.489C11.8984 92.1333 9.4 82.3153 9.4 71H7.4C7.4 82.618 9.96828 92.8 15.1401 101.511L16.8599 100.489ZM9.4 71C9.4 57.8486 12.8158 46.7326 19.6027 37.5963L17.9973 36.4037C10.9175 45.9341 7.4 57.4847 7.4 71H9.4ZM19.6 37.6C26.69 28.1467 35.7427 21.1925 46.7752 16.7269L46.0248 14.873C34.6573 19.4742 25.31 26.6533 18 36.4L19.6 37.6ZM46.7861 16.7224C58.1268 11.9752 70.1286 9.59999 82.8 9.59999V7.59999C69.8714 7.59999 57.6065 10.0248 46.0139 14.8775L46.7861 16.7224ZM82.8 9.59999C98.3939 9.59999 113.864 12.7709 129.218 19.124L129.982 17.276C114.402 10.829 98.6728 7.59999 82.8 7.59999V9.59999ZM129.284 19.1487C131.179 19.7805 132.504 20.6027 133.35 21.5616C134.179 22.5009 134.6 23.6281 134.6 25H136.6C136.6 23.1719 136.021 21.5657 134.85 20.2384C133.696 18.9306 132.021 17.9528 129.916 17.2513L129.284 19.1487ZM134.602 25.0607L137.402 71.0607L139.398 70.9392L136.598 24.9392L134.602 25.0607ZM137.4 71C137.4 71.3126 137.313 71.3887 137.275 71.4191C137.195 71.4837 136.96 71.6 136.4 71.6V73.6C137.174 73.6 137.939 73.4497 138.525 72.9809C139.153 72.478 139.4 71.754 139.4 71H137.4ZM136.4 71.6C135.857 71.6 135.538 71.4903 135.355 71.3679C135.191 71.2591 135.052 71.0865 134.97 70.7575L133.03 71.2425C133.214 71.9801 133.609 72.6076 134.245 73.032C134.862 73.443 135.61 73.6 136.4 73.6V71.6ZM134.988 70.8479C132.827 56.7974 127.017 43.8374 117.583 31.9775L116.017 33.2225C125.25 44.8293 130.907 57.4693 133.012 71.152L134.988 70.8479ZM117.589 31.986C108.035 19.7021 94.2536 13.6 76.4 13.6V15.6C93.7464 15.6 106.898 21.4978 116.011 33.2139L117.589 31.986ZM76.4 13.6C61.2656 13.6 49.7469 18.067 42.0375 27.153L43.5625 28.447C50.7865 19.933 61.6678 15.6 76.4 15.6V13.6ZM42.0357 27.1551C34.6615 35.895 31 46.8005 31 59.8H33C33 47.1994 36.5386 36.7717 43.5643 28.4449L42.0357 27.1551ZM360.484 203.4L361.468 203.58L361.484 203.491V203.4H360.484ZM364.084 203L363.637 203.894L363.701 203.926L363.768 203.949L364.084 203ZM365.284 204.2L366.274 204.341L366.284 204.271V204.2H365.284ZM360.084 261.8L360.791 262.507L360.791 262.507L360.084 261.8ZM209.684 256.2L209.417 255.236L209.409 255.239L209.402 255.241L209.684 256.2ZM219.284 248.6L218.378 248.177L218.371 248.191L218.365 248.206L219.284 248.6ZM219.284 27.8L218.365 28.1939L218.377 28.2209L218.39 28.2472L219.284 27.8ZM209.684 20.2L209.352 21.143L209.384 21.1543L209.417 21.1635L209.684 20.2ZM352.084 16.6H351.084V16.6081L351.085 16.6162L352.084 16.6ZM352.884 65.8H353.884V65.7919L353.884 65.7837L352.884 65.8ZM350.884 67.4V68.4H350.983L351.081 68.3806L350.884 67.4ZM348.484 66.2L347.486 66.2565L347.494 66.3897L347.536 66.5162L348.484 66.2ZM335.684 33.4L334.965 34.095L334.971 34.1011L334.977 34.1071L335.684 33.4ZM259.684 23.8L259.983 24.7545L260 24.749L260.017 24.743L259.684 23.8ZM250.484 31.4L249.59 30.9528L249.583 30.9667L249.576 30.9809L250.484 31.4ZM248.084 128.6H247.084V129.6H248.084V128.6ZM324.084 122.2L323.478 121.405L323.469 121.412L323.46 121.419L324.084 122.2ZM337.284 100.6L338.284 100.612V100.6H337.284ZM336.884 133L335.884 132.988V133H336.884ZM337.284 150.6L338.284 150.579L338.284 150.556L338.282 150.533L337.284 150.6ZM337.684 169.8H338.684V169.79L338.684 169.779L337.684 169.8ZM324.084 144.6L323.413 145.342L323.422 145.349L323.431 145.357L324.084 144.6ZM248.084 137V136H247.084V137H248.084ZM250.484 245.4L249.576 245.819L249.576 245.819L250.484 245.4ZM259.284 252.6L259.583 251.646L259.583 251.646L259.284 252.6ZM343.284 241L342.556 240.315L342.556 240.315L343.284 241ZM361.484 203.4C361.484 203.442 361.471 203.523 361.416 203.605C361.366 203.68 361.317 203.702 361.332 203.694C361.35 203.685 361.414 203.659 361.549 203.636C361.681 203.614 361.857 203.6 362.084 203.6V201.6C361.5 201.6 360.913 201.668 360.437 201.906C360.185 202.032 359.936 202.22 359.752 202.495C359.564 202.777 359.484 203.092 359.484 203.4H361.484ZM362.084 203.6C362.78 203.6 363.282 203.717 363.637 203.894L364.532 202.106C363.82 201.75 362.989 201.6 362.084 201.6V203.6ZM363.768 203.949C364.087 204.055 364.228 204.157 364.277 204.207C364.298 204.227 364.296 204.232 364.29 204.219C364.284 204.205 364.284 204.195 364.284 204.2H366.284C366.284 203.002 365.331 202.362 364.401 202.051L363.768 203.949ZM364.294 204.059C361.887 220.909 360.684 238.557 360.684 257H362.684C362.684 238.643 363.882 221.091 366.274 204.341L364.294 204.059ZM360.684 257C360.684 258.979 360.19 260.28 359.377 261.093L360.791 262.507C362.112 261.187 362.684 259.287 362.684 257H360.684ZM359.377 261.093C359.151 261.319 358.742 261.555 358.042 261.73C357.348 261.903 356.436 262 355.284 262V264C356.533 264 357.621 263.897 358.527 263.67C359.427 263.445 360.218 263.081 360.791 262.507L359.377 261.093ZM355.284 262H187.684V264H355.284V262ZM187.684 262C187.834 262 187.967 262.068 188.041 262.143C188.092 262.193 188.073 262.203 188.033 262.084C187.952 261.84 187.884 261.371 187.884 260.6H185.884C185.884 261.429 185.95 262.16 186.136 262.716C186.313 263.247 186.753 264 187.684 264V262ZM187.884 260.6C187.884 259.829 187.952 259.36 188.033 259.116C188.073 258.997 188.092 259.007 188.041 259.057C187.967 259.132 187.834 259.2 187.684 259.2V257.2C186.753 257.2 186.313 257.953 186.136 258.484C185.95 259.04 185.884 259.771 185.884 260.6H187.884ZM187.684 259.2C197.83 259.2 205.286 258.536 209.967 257.159L209.402 255.241C205.016 256.531 197.806 257.2 187.684 257.2V259.2ZM209.952 257.164C214.971 255.769 218.457 253.069 220.204 248.994L218.365 248.206C216.912 251.598 213.997 253.964 209.417 255.236L209.952 257.164ZM220.191 249.023C222.151 244.823 223.084 238.646 223.084 230.6H221.084C221.084 238.554 220.151 244.377 218.378 248.177L220.191 249.023ZM223.084 230.6V45.4H221.084V230.6H223.084ZM223.084 45.4C223.084 37.362 222.153 31.3014 220.179 27.3528L218.39 28.2472C220.149 31.7653 221.084 37.438 221.084 45.4H223.084ZM220.204 27.4061C218.457 23.3309 214.971 20.6307 209.952 19.2365L209.417 21.1635C213.997 22.4359 216.912 24.8024 218.365 28.1939L220.204 27.4061ZM210.017 19.257C205.313 17.5967 197.834 16.8 187.684 16.8V18.8C197.801 18.8 204.989 19.6033 209.352 21.143L210.017 19.257ZM187.684 16.8C187.834 16.8 187.967 16.868 188.041 16.9429C188.092 16.9932 188.073 17.0028 188.033 16.8838C187.952 16.6401 187.884 16.1708 187.884 15.4H185.884C185.884 16.2292 185.95 16.9599 186.136 17.5162C186.313 18.0469 186.753 18.8 187.684 18.8V16.8ZM187.884 15.4C187.884 14.6292 187.952 14.1599 188.033 13.9162C188.073 13.7972 188.092 13.8068 188.041 13.8571C187.967 13.932 187.834 14 187.684 14V12C186.753 12 186.313 12.7531 186.136 13.2838C185.95 13.8401 185.884 14.5708 185.884 15.4H187.884ZM187.684 14H348.484V12H187.684V14ZM348.484 14C349.53 14 350.131 14.2608 350.477 14.6071C350.824 14.9534 351.084 15.5541 351.084 16.6H353.084C353.084 15.2458 352.745 14.0466 351.891 13.1929C351.038 12.3392 349.839 12 348.484 12V14ZM351.085 16.6162L351.885 65.8162L353.884 65.7837L353.084 16.5837L351.085 16.6162ZM351.884 65.8C351.884 65.8735 351.874 65.9276 351.76 66.0191C351.604 66.1438 351.281 66.3008 350.688 66.4194L351.081 68.3806C351.821 68.2325 352.498 67.9896 353.009 67.5809C353.561 67.1391 353.884 66.5265 353.884 65.8H351.884ZM350.884 66.4C349.689 66.4 349.49 66.0536 349.433 65.8838L347.536 66.5162C348.012 67.9464 349.413 68.4 350.884 68.4V66.4ZM349.483 66.1435C348.673 51.839 344.345 40.6461 336.391 32.6929L334.977 34.1071C342.491 41.6206 346.696 52.2943 347.486 66.2565L349.483 66.1435ZM336.403 32.705C328.453 24.4803 317.911 20.4 304.884 20.4V22.4C317.458 22.4 327.449 26.3197 334.965 34.095L336.403 32.705ZM304.884 20.4H280.484V22.4H304.884V20.4ZM280.484 20.4C271.124 20.4 264.05 21.1986 259.352 22.857L260.017 24.743C264.385 23.2014 271.179 22.4 280.484 22.4V20.4ZM259.386 22.8455C254.881 24.2535 251.587 26.9578 249.59 30.9528L251.379 31.8472C253.115 28.3755 255.955 26.0131 259.983 24.7545L259.386 22.8455ZM249.576 30.9809C247.883 34.6496 247.084 40.1612 247.084 47.4H249.084C249.084 40.2388 249.886 35.0837 251.392 31.819L249.576 30.9809ZM247.084 47.4V128.6H249.084V47.4H247.084ZM248.084 129.6H296.884V127.6H248.084V129.6ZM296.884 129.6C309.739 129.6 319.099 127.469 324.709 122.981L323.46 121.419C318.403 125.464 309.63 127.6 296.884 127.6V129.6ZM324.69 122.995C330.634 118.467 333.484 110.901 333.484 100.6H331.484C331.484 110.565 328.734 117.4 323.478 121.405L324.69 122.995ZM333.484 100.6C333.484 100.749 333.416 100.882 333.341 100.957C333.291 101.007 333.282 100.988 333.401 100.949C333.644 100.867 334.114 100.8 334.884 100.8V98.8C334.055 98.8 333.324 98.8659 332.768 99.0513C332.238 99.2282 331.484 99.6691 331.484 100.6H333.484ZM334.884 100.8C335.655 100.8 336.124 100.867 336.368 100.949C336.487 100.988 336.478 101.007 336.427 100.957C336.352 100.882 336.284 100.749 336.284 100.6H338.284C338.284 99.6691 337.531 99.2282 337.001 99.0513C336.444 98.8659 335.714 98.8 334.884 98.8V100.8ZM336.284 100.588L335.884 132.988L337.884 133.012L338.284 100.612L336.284 100.588ZM335.884 133C335.884 140.739 336.018 146.633 336.287 150.667L338.282 150.533C338.018 146.567 337.884 140.727 337.884 133H335.884ZM336.285 150.621L336.685 169.821L338.684 169.779L338.284 150.579L336.285 150.621ZM336.684 169.8C336.684 169.651 336.752 169.518 336.827 169.443C336.878 169.393 336.887 169.412 336.768 169.451C336.524 169.533 336.055 169.6 335.284 169.6V171.6C336.114 171.6 336.844 171.534 337.401 171.349C337.931 171.172 338.684 170.731 338.684 169.8H336.684ZM335.284 169.6C334.514 169.6 334.044 169.533 333.801 169.451C333.682 169.412 333.691 169.393 333.741 169.443C333.816 169.518 333.884 169.651 333.884 169.8H331.884C331.884 170.731 332.638 171.172 333.168 171.349C333.724 171.534 334.455 171.6 335.284 171.6V169.6ZM333.884 169.8C333.884 157.927 330.917 149.18 324.738 143.843L323.431 145.357C328.985 150.153 331.884 158.207 331.884 169.8H333.884ZM324.755 143.858C318.875 138.538 309.093 136 295.684 136V138C308.942 138 318.094 140.529 323.413 145.342L324.755 143.858ZM295.684 136H248.084V138H295.684V136ZM247.084 137V229H249.084V137H247.084ZM247.084 229C247.084 236.499 247.882 242.147 249.576 245.819L251.392 244.981C249.887 241.719 249.084 236.434 249.084 229H247.084ZM249.576 245.819C251.315 249.587 254.5 252.153 258.986 253.554L259.583 251.646C255.535 250.381 252.853 248.147 251.392 244.981L249.576 245.819ZM258.986 253.554C263.405 254.935 270.198 255.6 279.284 255.6V253.6C270.237 253.6 263.697 252.931 259.583 251.646L258.986 253.554ZM279.284 255.6H311.284V253.6H279.284V255.6ZM311.284 255.6C324.351 255.6 335.284 250.959 344.013 241.685L342.556 240.315C334.218 249.174 323.817 253.6 311.284 253.6V255.6ZM344.013 241.685C352.713 232.441 358.51 219.713 361.468 203.58L359.501 203.22C356.592 219.087 350.923 231.425 342.556 240.315L344.013 241.685ZM422.928 33L422.221 32.2929L422.215 32.2985L422.21 32.3042L422.928 33ZM404.928 76.6L403.944 76.4211L403.928 76.5098V76.6H404.928ZM400.528 76.6L399.534 76.4896L399.528 76.5446V76.6H400.528ZM404.128 39L405.124 39.0859L405.124 39.0859L404.128 39ZM432.128 13L432.163 12.0006L432.146 12H432.128V13ZM562.528 13.4L562.513 12.4001L562.506 12.4002L562.498 12.4005L562.528 13.4ZM589.728 13V12H589.721L589.713 12.0001L589.728 13ZM610.928 11L610.66 10.0365L610.653 10.0385L610.646 10.0406L610.928 11ZM620.128 2.99999L621.077 3.31621L621.089 3.27978L621.098 3.24252L620.128 2.99999ZM624.528 2.99999L625.523 3.10289L625.528 3.05157V2.99999H624.528ZM622.128 38.2L621.129 38.1492L621.129 38.1492L622.128 38.2ZM616.128 76.6H617.128V76.5808L617.127 76.5616L616.128 76.6ZM603.328 33L602.587 33.6715L602.592 33.6774L602.598 33.6831L603.328 33ZM528.928 248.6L529.823 248.153L529.823 248.153L528.928 248.6ZM539.728 256.2L539.486 257.17L539.486 257.17L539.728 256.2ZM543.728 262.6L543.778 261.601L543.76 261.6L543.741 261.6L543.728 262.6ZM512.528 262.2L512.541 261.2L512.528 261.2L512.515 261.2L512.528 262.2ZM482.528 262.6L482.515 261.6L482.496 261.6L482.478 261.601L482.528 262.6ZM496.528 248.6L495.646 248.129L495.64 248.141L495.634 248.153L496.528 248.6ZM496.928 28.2L496.048 28.6741L496.056 28.6891L496.064 28.7039L496.928 28.2ZM486.528 21.8L486.322 22.7785L486.347 22.7838L486.372 22.7877L486.528 21.8ZM460.928 19.2C443.969 19.2 431.005 23.5085 422.221 32.2929L423.635 33.7071C431.918 25.4248 444.288 21.2 460.928 21.2V19.2ZM422.21 32.3042C413.736 41.0515 407.689 55.8224 403.944 76.4211L405.912 76.7789C409.633 56.3109 415.587 42.0152 423.646 33.6958L422.21 32.3042ZM403.928 76.6C403.928 76.4508 403.996 76.3178 404.071 76.2429C404.121 76.1925 404.131 76.2116 404.012 76.2513C403.768 76.3325 403.299 76.4 402.528 76.4V78.4C403.357 78.4 404.088 78.3341 404.644 78.1487C405.175 77.9718 405.928 77.5309 405.928 76.6H403.928ZM402.528 76.4C401.899 76.4 401.553 76.3329 401.4 76.2715C401.331 76.2443 401.366 76.2431 401.421 76.3098C401.492 76.3942 401.528 76.5056 401.528 76.6H399.528C399.528 76.9611 399.648 77.3058 399.885 77.5902C400.107 77.8569 400.391 78.0223 400.657 78.1285C401.17 78.3338 401.824 78.4 402.528 78.4V76.4ZM401.522 76.7104C402.59 67.0989 403.791 54.5565 405.124 39.0859L403.132 38.9141C401.799 54.3768 400.6 66.9011 399.534 76.4896L401.522 76.7104ZM405.124 39.0859C406.458 23.613 407.128 11.978 407.128 4.19999H405.128C405.128 11.8886 404.465 23.4536 403.132 38.9141L405.124 39.0859ZM407.128 4.19999C407.128 3.68747 407.256 3.48676 407.335 3.4071C407.415 3.32745 407.616 3.2 408.128 3.2V1.2C407.307 1.2 406.508 1.40588 405.921 1.99289C405.334 2.5799 405.128 3.37918 405.128 4.19999H407.128ZM408.128 3.2C408.814 3.2 409.142 3.34664 409.288 3.46822C409.399 3.5607 409.528 3.74026 409.528 4.19999H411.528C411.528 3.32639 411.257 2.50596 410.568 1.93177C409.914 1.38669 409.042 1.2 408.128 1.2V3.2ZM409.528 4.19999C409.528 5.8895 410.053 7.39847 411.104 8.68323C412.142 9.95119 413.65 10.9518 415.551 11.7261C419.333 13.267 424.89 14 432.128 14V12C424.966 12 419.723 11.2663 416.305 9.87391C414.606 9.18148 413.415 8.34881 412.652 7.41676C411.903 6.50152 411.528 5.44383 411.528 4.19999H409.528ZM432.093 13.9994C454.775 14.7999 481.587 15.2 512.528 15.2V13.2C481.603 13.2 454.815 12.8001 432.163 12.0006L432.093 13.9994ZM512.528 15.2C528.273 15.2 544.949 14.9331 562.558 14.3995L562.498 12.4005C544.907 12.9335 528.25 13.2 512.528 13.2V15.2ZM562.543 14.3999L589.743 13.9999L589.713 12.0001L562.513 12.4001L562.543 14.3999ZM589.728 14C599.347 14 606.533 13.3351 611.21 11.9593L610.646 10.0406C606.257 11.3316 599.31 12 589.728 12V14ZM611.196 11.9635C616.249 10.5597 619.618 7.69258 621.077 3.31621L619.179 2.68376C617.972 6.30738 615.207 8.77354 610.66 10.0365L611.196 11.9635ZM621.098 3.24252C621.181 2.91343 621.32 2.74088 621.483 2.63203C621.666 2.50968 621.985 2.39998 622.528 2.39998V0.399982C621.738 0.399982 620.99 0.556952 620.373 0.967932C619.737 1.39242 619.342 2.01987 619.158 2.75745L621.098 3.24252ZM622.528 2.39998C623.088 2.39998 623.323 2.51632 623.403 2.58085C623.442 2.6113 623.528 2.68736 623.528 2.99999H625.528C625.528 2.24595 625.281 1.52201 624.653 1.01912C624.067 0.550313 623.302 0.399982 622.528 0.399982V2.39998ZM623.533 2.89709C622.731 10.6575 621.93 22.4123 621.129 38.1492L623.127 38.2508C623.927 22.521 624.726 10.8091 625.523 3.10289L623.533 2.89709ZM621.129 38.1492C620.329 53.8908 619.928 66.7095 619.928 76.6H621.928C621.928 66.7572 622.327 53.9759 623.127 38.2508L621.129 38.1492ZM619.928 76.6C619.928 76.4508 619.996 76.3178 620.071 76.2429C620.121 76.1925 620.131 76.2116 620.012 76.2513C619.768 76.3325 619.299 76.4 618.528 76.4V78.4C619.357 78.4 620.088 78.3341 620.644 78.1487C621.175 77.9718 621.928 77.5309 621.928 76.6H619.928ZM618.528 76.4C617.757 76.4 617.288 76.3325 617.044 76.2513C616.925 76.2116 616.935 76.1925 616.985 76.2429C617.06 76.3178 617.128 76.4508 617.128 76.6H615.128C615.128 77.5309 615.881 77.9718 616.412 78.1487C616.968 78.3341 617.699 78.4 618.528 78.4V76.4ZM617.127 76.5616C616.325 55.6999 612.047 40.8561 604.058 32.3168L602.598 33.6831C610.076 41.6772 614.331 55.9001 615.129 76.6384L617.127 76.5616ZM604.069 32.3285C596.063 23.494 582.923 19.2 564.928 19.2V21.2C582.667 21.2 595.127 25.4393 602.587 33.6715L604.069 32.3285ZM564.928 19.2C552.925 19.2 544.3 19.7314 539.122 20.8214L539.534 22.7785C544.49 21.7353 552.931 21.2 564.928 21.2V19.2ZM539.122 20.8214C533.864 21.9284 530.095 24.3239 528.048 28.1259L529.809 29.0741C531.495 25.9427 534.659 23.8049 539.534 22.7785L539.122 20.8214ZM528.048 28.1259C526.055 31.827 525.128 37.912 525.128 46.2H527.128C527.128 37.9546 528.068 32.3063 529.809 29.0741L528.048 28.1259ZM525.128 46.2V230.6H527.128V46.2H525.128ZM525.128 230.6C525.128 238.898 526.058 245.096 528.034 249.047L529.823 248.153C528.065 244.638 527.128 238.835 527.128 230.6H525.128ZM528.034 249.047C530.069 253.118 533.965 255.79 539.486 257.17L539.971 255.23C534.825 253.943 531.52 251.548 529.823 248.153L528.034 249.047ZM539.486 257.17C544.945 258.535 553.448 259.2 564.928 259.2V257.2C553.475 257.2 545.178 256.532 539.971 255.23L539.486 257.17ZM564.928 259.2C564.953 259.2 564.93 259.203 564.898 259.182C564.873 259.165 564.893 259.166 564.934 259.247C565.029 259.438 565.128 259.851 565.128 260.6H567.128C567.128 259.749 567.027 258.962 566.723 258.353C566.563 258.034 566.334 257.735 566.008 257.518C565.676 257.297 565.303 257.2 564.928 257.2V259.2ZM565.128 260.6C565.128 261.349 565.029 261.762 564.934 261.953C564.893 262.034 564.873 262.035 564.898 262.018C564.93 261.997 564.953 262 564.928 262V264C565.303 264 565.676 263.903 566.008 263.682C566.334 263.465 566.563 263.166 566.723 262.847C567.027 262.238 567.128 261.451 567.128 260.6H565.128ZM564.928 262C556.136 262 549.088 261.867 543.778 261.601L543.678 263.599C549.035 263.867 556.121 264 564.928 264V262ZM543.741 261.6L512.541 261.2L512.515 263.2L543.715 263.6L543.741 261.6ZM512.515 261.2L482.515 261.6L482.541 263.6L512.541 263.2L512.515 261.2ZM482.478 261.601C477.169 261.867 469.855 262 460.528 262V264C469.868 264 477.22 263.867 482.578 263.599L482.478 261.601ZM460.528 262C460.677 262 460.81 262.068 460.885 262.143C460.936 262.193 460.916 262.203 460.877 262.084C460.796 261.84 460.728 261.371 460.728 260.6H458.728C458.728 261.429 458.794 262.16 458.979 262.716C459.156 263.247 459.597 264 460.528 264V262ZM460.728 260.6C460.728 259.829 460.796 259.36 460.877 259.116C460.916 258.997 460.936 259.007 460.885 259.057C460.81 259.132 460.677 259.2 460.528 259.2V257.2C459.597 257.2 459.156 257.953 458.979 258.484C458.794 259.04 458.728 259.771 458.728 260.6H460.728ZM460.528 259.2C472.008 259.2 480.512 258.535 485.971 257.17L485.486 255.23C480.278 256.532 471.981 257.2 460.528 257.2V259.2ZM485.971 257.17C491.492 255.79 495.387 253.118 497.423 249.047L495.634 248.153C493.936 251.548 490.631 253.943 485.486 255.23L485.971 257.17ZM497.41 249.071C499.66 244.854 500.728 238.656 500.728 230.6H498.728C498.728 238.544 497.663 244.346 495.646 248.129L497.41 249.071ZM500.728 230.6V45.4H498.728V230.6H500.728ZM500.728 45.4C500.728 37.1247 499.806 31.1481 497.792 27.6961L496.064 28.7039C497.784 31.6519 498.728 37.1419 498.728 45.4H500.728ZM497.809 27.7259C495.751 23.9047 491.957 21.6448 486.684 20.8122L486.372 22.7877C491.232 23.5551 494.372 25.562 496.048 28.6741L497.809 27.7259ZM486.734 20.8214C481.556 19.7314 472.931 19.2 460.928 19.2V21.2C472.925 21.2 481.367 21.7353 486.322 22.7785L486.734 20.8214ZM704.444 87L705.28 86.452L705.28 86.452L704.444 87ZM722.844 106.6L722.249 107.404L722.265 107.416L722.282 107.427L722.844 106.6ZM753.244 125.8L752.727 126.656L752.727 126.656L753.244 125.8ZM785.644 147L785.044 147.8L785.05 147.805L785.057 147.81L785.644 147ZM805.244 168.6L804.389 169.118L804.398 169.134L804.408 169.149L805.244 168.6ZM775.644 259L776.075 259.902L776.083 259.898L775.644 259ZM674.844 253.8L674.329 254.657L674.346 254.668L674.364 254.677L674.844 253.8ZM672.044 251L671.074 251.243L671.1 251.349L671.149 251.447L672.044 251ZM671.244 246.2L670.248 246.295L670.25 246.31L670.251 246.324L671.244 246.2ZM666.044 191.8L667.039 191.705L667.032 191.63L667.014 191.557L666.044 191.8ZM667.644 189.8L667.479 188.814L667.463 188.816L667.448 188.819L667.644 189.8ZM670.444 191L671.42 190.783L671.417 190.77L671.414 190.757L670.444 191ZM694.044 240.6L693.273 241.237L693.28 241.246L694.044 240.6ZM774.044 250.6L774.666 251.383L774.668 251.381L774.044 250.6ZM780.044 184.2L780.899 183.682L780.899 183.682L780.044 184.2ZM760.444 162.6L759.826 163.386L759.841 163.398L759.857 163.41L760.444 162.6ZM729.644 142.2L729.127 143.056L729.134 143.061L729.644 142.2ZM699.244 122.2L698.63 122.989L698.637 122.995L698.644 123L699.244 122.2ZM680.844 101L681.704 100.489L681.704 100.489L680.844 101ZM683.644 37L682.844 36.4L682.841 36.4037L683.644 37ZM711.244 15.8L711.619 16.727L711.63 16.7224L711.244 15.8ZM794.444 18.2L794.061 19.124L794.094 19.1375L794.128 19.1487L794.444 18.2ZM800.444 25H799.444V25.0304L799.446 25.0607L800.444 25ZM803.244 71H804.244V70.9696L804.242 70.9392L803.244 71ZM798.844 71L797.855 71.152L797.862 71.1977L797.874 71.2425L798.844 71ZM781.644 32.6L780.854 33.214L780.861 33.2225L781.644 32.6ZM707.644 27.8L706.881 27.153L706.879 27.1551L707.644 27.8ZM695.844 59.8C695.844 70.3696 698.421 79.632 703.607 87.548L705.28 86.452C700.333 78.9013 697.844 70.0304 697.844 59.8H695.844ZM703.607 87.548C708.737 95.3769 714.951 101.998 722.249 107.404L723.439 105.796C716.337 100.536 710.284 94.0897 705.28 86.452L703.607 87.548ZM722.282 107.427C729.77 112.508 739.92 118.919 752.727 126.656L753.761 124.944C740.968 117.215 730.851 110.825 723.405 105.773L722.282 107.427ZM752.727 126.656C766.85 135.183 777.617 142.23 785.044 147.8L786.244 146.2C778.738 140.57 767.904 133.484 753.761 124.944L752.727 126.656ZM785.057 147.81C792.674 153.326 799.119 160.424 804.389 169.118L806.099 168.082C800.702 159.176 794.08 151.874 786.23 146.19L785.057 147.81ZM804.408 169.149C809.883 177.492 812.644 187.56 812.644 199.4H814.644C814.644 187.24 811.804 176.775 806.08 168.051L804.408 169.149ZM812.644 199.4C812.644 212.024 809.49 223.441 803.192 233.676L804.895 234.724C811.397 224.159 814.644 212.376 814.644 199.4H812.644ZM803.192 233.676C796.905 243.893 787.592 252.039 775.204 258.102L776.083 259.898C788.762 253.694 798.383 245.307 804.895 234.724L803.192 233.676ZM775.212 258.098C763.112 263.885 748.467 266.8 731.244 266.8V268.8C748.687 268.8 763.642 265.848 776.075 259.902L775.212 258.098ZM731.244 266.8C710.868 266.8 692.235 262.171 675.324 252.923L674.364 254.677C691.586 264.096 710.552 268.8 731.244 268.8V266.8ZM675.358 252.943C674.139 252.211 673.364 251.405 672.938 250.553L671.149 251.447C671.79 252.729 672.882 253.789 674.329 254.657L675.358 252.943ZM673.014 250.757C672.762 249.751 672.501 248.199 672.236 246.076L670.251 246.324C670.519 248.467 670.792 250.116 671.074 251.243L673.014 250.757ZM672.239 246.105L667.039 191.705L665.048 191.895L670.248 246.295L672.239 246.105ZM667.014 191.557C666.932 191.231 667.007 191.147 667.025 191.125C667.079 191.057 667.275 190.893 667.84 190.781L667.448 188.819C666.679 188.973 665.942 189.277 665.463 189.875C664.947 190.52 664.888 191.302 665.074 192.043L667.014 191.557ZM667.808 190.786C668.522 190.667 668.935 190.727 669.15 190.819C669.303 190.885 669.409 190.983 669.474 191.243L671.414 190.757C671.212 189.95 670.718 189.315 669.938 188.981C669.219 188.673 668.365 188.666 667.479 188.814L667.808 190.786ZM669.468 191.217C673.765 210.557 681.697 227.238 693.273 241.237L694.814 239.963C683.458 226.229 675.656 209.843 671.42 190.783L669.468 191.217ZM693.28 241.246C705.216 255.351 720.969 262.4 740.444 262.4V260.4C721.519 260.4 706.338 253.582 694.807 239.954L693.28 241.246ZM740.444 262.4C753.967 262.4 765.396 258.744 774.666 251.383L773.422 249.817C764.558 256.856 753.587 260.4 740.444 260.4V262.4ZM774.668 251.381C784.313 243.665 789.044 231.594 789.044 215.4H787.044C787.044 231.206 782.441 242.602 773.419 249.819L774.668 251.381ZM789.044 215.4C789.044 203.248 786.342 192.662 780.899 183.682L779.189 184.718C784.412 193.338 787.044 203.552 787.044 215.4H789.044ZM780.899 183.682C775.502 174.776 768.88 167.474 761.03 161.79L759.857 163.41C767.474 168.926 773.919 176.024 779.189 184.718L780.899 183.682ZM761.062 161.814C753.546 155.909 743.238 149.084 730.153 141.339L729.134 143.061C742.183 150.783 752.408 157.558 759.826 163.386L761.062 161.814ZM730.161 141.344C717.375 133.619 707.273 126.972 699.844 121.4L698.644 123C706.148 128.628 716.313 135.314 729.127 143.056L730.161 141.344ZM699.858 121.411C692.765 115.894 686.712 108.925 681.704 100.489L679.984 101.511C685.109 110.142 691.323 117.306 698.63 122.989L699.858 121.411ZM681.704 100.489C676.742 92.1333 674.244 82.3153 674.244 71H672.244C672.244 82.618 674.812 92.8 679.984 101.511L681.704 100.489ZM674.244 71C674.244 57.8486 677.66 46.7326 684.446 37.5963L682.841 36.4037C675.761 45.9341 672.244 57.4847 672.244 71H674.244ZM684.444 37.6C691.534 28.1467 700.586 21.1925 711.619 16.7269L710.869 14.873C699.501 19.4742 690.154 26.6533 682.844 36.4L684.444 37.6ZM711.63 16.7224C722.971 11.9752 734.972 9.59999 747.644 9.59999V7.59999C734.715 7.59999 722.45 10.0248 710.858 14.8775L711.63 16.7224ZM747.644 9.59999C763.238 9.59999 778.708 12.7709 794.061 19.124L794.826 17.276C779.246 10.829 763.517 7.59999 747.644 7.59999V9.59999ZM794.128 19.1487C796.023 19.7805 797.348 20.6027 798.194 21.5616C799.023 22.5009 799.444 23.6281 799.444 25H801.444C801.444 23.1719 800.865 21.5657 799.694 20.2384C798.54 18.9306 796.864 17.9528 794.76 17.2513L794.128 19.1487ZM799.446 25.0607L802.246 71.0607L804.242 70.9392L801.442 24.9392L799.446 25.0607ZM802.244 71C802.244 71.3126 802.157 71.3887 802.119 71.4191C802.038 71.4837 801.804 71.6 801.244 71.6V73.6C802.017 73.6 802.782 73.4497 803.368 72.9809C803.997 72.478 804.244 71.754 804.244 71H802.244ZM801.244 71.6C800.701 71.6 800.382 71.4903 800.198 71.3679C800.035 71.2591 799.896 71.0865 799.814 70.7575L797.874 71.2425C798.058 71.9801 798.452 72.6076 799.089 73.032C799.706 73.443 800.453 73.6 801.244 73.6V71.6ZM799.832 70.8479C797.671 56.7974 791.86 43.8374 782.426 31.9775L780.861 33.2225C790.094 44.8293 795.75 57.4693 797.855 71.152L799.832 70.8479ZM782.433 31.986C772.879 19.7021 759.097 13.6 741.244 13.6V15.6C758.59 15.6 771.742 21.4978 780.854 33.2139L782.433 31.986ZM741.244 13.6C726.109 13.6 714.591 18.067 706.881 27.153L708.406 28.447C715.63 19.933 726.512 15.6 741.244 15.6V13.6ZM706.879 27.1551C699.505 35.895 695.844 46.8005 695.844 59.8H697.844C697.844 47.1994 701.382 36.7717 708.408 28.4449L706.879 27.1551Z" fill="black" fill-opacity="0.05"/>
</svg>
