<svg width="2220" height="691" viewBox="0 0 2220 691" fill="none" xmlns="http://www.w3.org/2000/svg">
<path d="M367.2 410.6C368.1 410.6 368.55 411.5 368.55 413.3C368.55 415.1 368.1 416 367.2 416C357.6 416 349.95 415.85 344.25 415.55L313.2 415.1L283.05 415.55C278.25 415.85 271.5 416 262.8 416C262.2 416 261.9 415.1 261.9 413.3C261.9 411.5 262.2 410.6 262.8 410.6C273 410.6 280.5 409.85 285.3 408.35C290.1 406.55 293.25 403.55 294.75 399.35C296.55 395.15 297.15 388.55 296.55 379.55L288 179.3L187.2 412.85C186.6 414.05 185.4 414.65 183.6 414.65C182.1 414.65 180.75 414.05 179.55 412.85L68.4 180.2L64.8 365.6C64.5 381.5 67.2 393.05 72.9 400.25C78.9 407.15 88.8 410.6 102.6 410.6C103.2 410.6 103.5 411.5 103.5 413.3C103.5 415.1 103.2 416 102.6 416C94.2 416 87.75 415.85 83.25 415.55L58.95 415.1L34.65 415.55C30.45 415.85 24.45 416 16.65 416C15.75 416 15.3 415.1 15.3 413.3C15.3 411.5 15.75 410.6 16.65 410.6C28.95 410.6 38.1 407 44.1 399.8C50.1 392.6 53.25 381.2 53.55 365.6L57.6 160.85C48.6 147.05 36 140.15 19.8 140.15C18.9 140.15 18.45 139.25 18.45 137.45C18.45 135.65 18.9 134.75 19.8 134.75L37.35 135.2C40.65 135.5 45 135.65 50.4 135.65C56.4 135.65 61.35 135.5 65.25 135.2C69.45 134.9 72.75 134.75 75.15 134.75C79.05 134.75 82.2 136.1 84.6 138.8C87 141.5 90.75 147.95 95.85 158.15L196.2 365.15L291.6 146C294.9 138.5 299.4 134.75 305.1 134.75C306.6 134.75 308.85 134.9 311.85 135.2C314.85 135.5 318.75 135.65 323.55 135.65L346.05 135.2C349.35 134.9 354.45 134.75 361.35 134.75C361.95 134.75 362.25 135.65 362.25 137.45C362.25 139.25 361.95 140.15 361.35 140.15C346.35 140.15 335.55 142.55 328.95 147.35C322.65 151.85 319.65 160.1 319.95 172.1L329.4 379.55C330 388.85 331.2 395.6 333 399.8C334.8 404 338.1 406.85 342.9 408.35C348 409.85 356.1 410.6 367.2 410.6ZM693.39 410.6C694.59 410.6 695.19 411.5 695.19 413.3C695.19 415.1 694.59 416 693.39 416C687.69 416 678.84 415.7 666.84 415.1C654.84 414.5 645.99 414.2 640.29 414.2C633.39 414.2 624.84 414.5 614.64 415.1C605.04 415.7 597.54 416 592.14 416C590.94 416 590.34 415.1 590.34 413.3C590.34 411.5 590.94 410.6 592.14 410.6C602.94 410.6 610.59 409.7 615.09 407.9C619.89 405.8 622.29 402.2 622.29 397.1C622.29 392.6 620.19 385.85 615.99 376.85L577.29 295.85H469.74L443.19 357.5C439.29 366.5 437.34 374.75 437.34 382.25C437.34 401.15 451.89 410.6 480.99 410.6C482.49 410.6 483.24 411.5 483.24 413.3C483.24 415.1 482.49 416 480.99 416C475.59 416 467.79 415.7 457.59 415.1C446.19 414.5 436.29 414.2 427.89 414.2C420.39 414.2 411.24 414.5 400.44 415.1C391.44 415.7 383.79 416 377.49 416C375.99 416 375.24 415.1 375.24 413.3C375.24 411.5 375.99 410.6 377.49 410.6C385.89 410.6 392.94 409.1 398.64 406.1C404.64 402.8 410.34 397.1 415.74 389C421.14 380.9 427.14 369.05 433.74 353.45L528.69 131.15C529.29 130.25 530.49 129.8 532.29 129.8C534.09 129.8 535.14 130.25 535.44 131.15L642.54 354.35C652.74 376.25 661.44 391.1 668.64 398.9C675.84 406.7 684.09 410.6 693.39 410.6ZM473.79 286.4H572.79L520.59 177.5L473.79 286.4ZM1003.49 410.6C1004.39 410.6 1004.84 411.5 1004.84 413.3C1004.84 415.1 1004.39 416 1003.49 416H941.836C934.636 416 920.986 403.85 900.886 379.55C881.086 354.95 856.786 320.75 827.986 276.95C819.886 278.45 812.386 279.2 805.486 279.2C803.986 279.2 796.936 278.75 784.336 277.85V379.55C784.336 388.85 785.236 395.6 787.036 399.8C788.836 404 792.286 406.85 797.386 408.35C802.486 409.85 810.586 410.6 821.686 410.6C822.586 410.6 823.036 411.5 823.036 413.3C823.036 415.1 822.586 416 821.686 416C812.086 416 804.736 415.85 799.636 415.55L767.686 415.1L736.636 415.55C730.936 415.85 723.286 416 713.686 416C713.086 416 712.786 415.1 712.786 413.3C712.786 411.5 713.086 410.6 713.686 410.6C724.786 410.6 732.886 409.85 737.986 408.35C743.086 406.85 746.536 404 748.336 399.8C750.436 395.3 751.486 388.55 751.486 379.55V171.2C751.486 162.2 750.586 155.6 748.786 151.4C746.986 147.2 743.536 144.35 738.436 142.85C733.336 141.05 725.386 140.15 714.586 140.15C713.686 140.15 713.236 139.25 713.236 137.45C713.236 135.65 713.686 134.75 714.586 134.75L736.636 135.2C749.236 135.8 759.586 136.1 767.686 136.1C773.986 136.1 779.986 135.95 785.686 135.65C791.386 135.35 796.336 135.05 800.536 134.75C811.636 133.85 821.986 133.4 831.586 133.4C855.586 133.4 874.186 138.8 887.386 149.6C900.886 160.1 907.636 174.35 907.636 192.35C907.636 208.55 902.836 223.25 893.236 236.45C883.936 249.65 871.486 260 855.886 267.5C881.086 303.8 902.086 332.15 918.886 352.55C935.986 372.95 951.136 387.8 964.336 397.1C977.836 406.1 990.886 410.6 1003.49 410.6ZM784.336 267.05C792.736 267.95 801.586 268.4 810.886 268.4C833.386 268.4 849.436 263.45 859.036 253.55C868.636 243.35 873.436 227.6 873.436 206.3C873.436 182.6 868.486 165.8 858.586 155.9C848.686 145.7 834.436 140.6 815.836 140.6C804.136 140.6 795.886 142.85 791.086 147.35C786.586 151.55 784.336 159.8 784.336 172.1V267.05ZM1091.12 379.55C1091.12 388.85 1092.02 395.6 1093.82 399.8C1095.62 404 1099.07 406.85 1104.17 408.35C1109.27 409.85 1117.37 410.6 1128.47 410.6C1129.07 410.6 1129.37 411.5 1129.37 413.3C1129.37 415.1 1129.07 416 1128.47 416C1119.17 416 1111.82 415.85 1106.42 415.55L1074.02 415.1L1042.97 415.55C1037.27 415.85 1029.62 416 1020.02 416C1019.12 416 1018.67 415.1 1018.67 413.3C1018.67 411.5 1019.12 410.6 1020.02 410.6C1031.12 410.6 1039.22 409.85 1044.32 408.35C1049.42 406.85 1052.87 404 1054.67 399.8C1056.77 395.3 1057.82 388.55 1057.82 379.55V171.2C1057.82 162.2 1056.77 155.6 1054.67 151.4C1052.87 147.2 1049.42 144.35 1044.32 142.85C1039.22 141.05 1031.12 140.15 1020.02 140.15C1019.12 140.15 1018.67 139.25 1018.67 137.45C1018.67 135.65 1019.12 134.75 1020.02 134.75L1042.97 135.2C1055.57 135.8 1065.92 136.1 1074.02 136.1C1082.72 136.1 1093.67 135.8 1106.87 135.2L1128.47 134.75C1129.07 134.75 1129.37 135.65 1129.37 137.45C1129.37 139.25 1129.07 140.15 1128.47 140.15C1117.67 140.15 1109.57 141.05 1104.17 142.85C1099.07 144.65 1095.62 147.8 1093.82 152.3C1092.02 156.5 1091.12 163.1 1091.12 172.1V379.55ZM1365.16 348.5C1365.16 347.6 1366.06 347.3 1367.86 347.6C1369.66 347.6 1370.56 348.05 1370.56 348.95C1367.86 368.45 1366.51 388.55 1366.51 409.25C1366.51 411.65 1365.91 413.45 1364.71 414.65C1363.81 415.55 1362.01 416 1359.31 416H1168.96C1168.36 416 1168.06 415.1 1168.06 413.3C1168.06 411.5 1168.36 410.6 1168.96 410.6C1180.06 410.6 1188.16 409.85 1193.26 408.35C1198.36 406.85 1201.81 404 1203.61 399.8C1205.41 395.3 1206.31 388.55 1206.31 379.55V171.2C1206.31 162.2 1205.41 155.6 1203.61 151.4C1201.81 147.2 1198.36 144.35 1193.26 142.85C1188.16 141.05 1180.06 140.15 1168.96 140.15C1168.36 140.15 1168.06 139.25 1168.06 137.45C1168.06 135.65 1168.36 134.75 1168.96 134.75H1351.66C1354.36 134.75 1355.71 136.1 1355.71 138.8L1356.61 195.05C1356.61 195.95 1355.71 196.4 1353.91 196.4C1352.41 196.4 1351.66 195.95 1351.66 195.05C1349.86 178.85 1344.31 166.4 1335.01 157.7C1325.71 149 1313.56 144.65 1298.56 144.65H1273.81C1259.71 144.65 1250.41 146.6 1245.91 150.5C1241.41 154.4 1239.16 161.9 1239.16 173V264.8H1290.91C1305.91 264.8 1316.71 262.25 1323.31 257.15C1330.21 252.05 1333.66 243.8 1333.66 232.4C1333.66 231.8 1334.56 231.5 1336.36 231.5C1338.16 231.5 1339.06 231.8 1339.06 232.4L1338.61 269.75C1338.61 278.45 1338.76 285.05 1339.06 289.55L1339.51 312.05C1339.51 312.65 1338.61 312.95 1336.81 312.95C1335.01 312.95 1334.11 312.65 1334.11 312.05C1334.11 298.85 1330.66 289.4 1323.76 283.7C1316.86 277.7 1305.61 274.7 1290.01 274.7H1239.16V377.75C1239.16 385.55 1240.06 391.4 1241.86 395.3C1243.66 399.2 1246.81 402.05 1251.31 403.85C1255.81 405.35 1262.71 406.1 1272.01 406.1H1303.96C1319.86 406.1 1333.06 401.15 1343.56 391.25C1354.06 381.05 1361.26 366.8 1365.16 348.5ZM1478.13 377.75C1478.13 386.15 1478.88 392.3 1480.38 396.2C1482.18 400.1 1485.33 402.8 1489.83 404.3C1494.63 405.5 1502.13 406.1 1512.33 406.1H1555.53C1573.53 406.1 1588.23 400.7 1599.63 389.9C1611.33 378.8 1618.98 363.8 1622.58 344.9C1622.58 344 1623.33 343.7 1624.83 344C1626.63 344 1627.53 344.45 1627.53 345.35C1624.83 370.85 1623.48 392.15 1623.48 409.25C1623.48 411.65 1623.03 413.45 1622.13 414.65C1621.23 415.55 1619.43 416 1616.73 416H1407.93C1407.33 416 1407.03 415.1 1407.03 413.3C1407.03 411.5 1407.33 410.6 1407.93 410.6C1419.03 410.6 1427.13 409.85 1432.23 408.35C1437.33 406.85 1440.78 404 1442.58 399.8C1444.38 395.3 1445.28 388.55 1445.28 379.55V171.2C1445.28 162.2 1444.38 155.6 1442.58 151.4C1440.78 147.2 1437.33 144.35 1432.23 142.85C1427.13 141.05 1419.03 140.15 1407.93 140.15C1407.33 140.15 1407.03 139.25 1407.03 137.45C1407.03 135.65 1407.33 134.75 1407.93 134.75L1430.43 135.2C1443.03 135.8 1453.38 136.1 1461.48 136.1C1470.18 136.1 1480.83 135.8 1493.43 135.2L1515.48 134.75C1516.08 134.75 1516.38 135.65 1516.38 137.45C1516.38 139.25 1516.08 140.15 1515.48 140.15C1504.68 140.15 1496.58 141.05 1491.18 142.85C1486.08 144.35 1482.63 147.35 1480.83 151.85C1479.03 156.05 1478.13 162.65 1478.13 171.65V377.75ZM1718.95 377.75C1718.95 386.15 1719.7 392.3 1721.2 396.2C1723 400.1 1726.15 402.8 1730.65 404.3C1735.45 405.5 1742.95 406.1 1753.15 406.1H1796.35C1814.35 406.1 1829.05 400.7 1840.45 389.9C1852.15 378.8 1859.8 363.8 1863.4 344.9C1863.4 344 1864.15 343.7 1865.65 344C1867.45 344 1868.35 344.45 1868.35 345.35C1865.65 370.85 1864.3 392.15 1864.3 409.25C1864.3 411.65 1863.85 413.45 1862.95 414.65C1862.05 415.55 1860.25 416 1857.55 416H1648.75C1648.15 416 1647.85 415.1 1647.85 413.3C1647.85 411.5 1648.15 410.6 1648.75 410.6C1659.85 410.6 1667.95 409.85 1673.05 408.35C1678.15 406.85 1681.6 404 1683.4 399.8C1685.2 395.3 1686.1 388.55 1686.1 379.55V171.2C1686.1 162.2 1685.2 155.6 1683.4 151.4C1681.6 147.2 1678.15 144.35 1673.05 142.85C1667.95 141.05 1659.85 140.15 1648.75 140.15C1648.15 140.15 1647.85 139.25 1647.85 137.45C1647.85 135.65 1648.15 134.75 1648.75 134.75L1671.25 135.2C1683.85 135.8 1694.2 136.1 1702.3 136.1C1711 136.1 1721.65 135.8 1734.25 135.2L1756.3 134.75C1756.9 134.75 1757.2 135.65 1757.2 137.45C1757.2 139.25 1756.9 140.15 1756.3 140.15C1745.5 140.15 1737.4 141.05 1732 142.85C1726.9 144.35 1723.45 147.35 1721.65 151.85C1719.85 156.05 1718.95 162.65 1718.95 171.65V377.75ZM2190.17 410.6C2191.37 410.6 2191.97 411.5 2191.97 413.3C2191.97 415.1 2191.37 416 2190.17 416C2184.47 416 2175.62 415.7 2163.62 415.1C2151.62 414.5 2142.77 414.2 2137.07 414.2C2130.17 414.2 2121.62 414.5 2111.42 415.1C2101.82 415.7 2094.32 416 2088.92 416C2087.72 416 2087.12 415.1 2087.12 413.3C2087.12 411.5 2087.72 410.6 2088.92 410.6C2099.72 410.6 2107.37 409.7 2111.87 407.9C2116.67 405.8 2119.07 402.2 2119.07 397.1C2119.07 392.6 2116.97 385.85 2112.77 376.85L2074.07 295.85H1966.52L1939.97 357.5C1936.07 366.5 1934.12 374.75 1934.12 382.25C1934.12 401.15 1948.67 410.6 1977.77 410.6C1979.27 410.6 1980.02 411.5 1980.02 413.3C1980.02 415.1 1979.27 416 1977.77 416C1972.37 416 1964.57 415.7 1954.37 415.1C1942.97 414.5 1933.07 414.2 1924.67 414.2C1917.17 414.2 1908.02 414.5 1897.22 415.1C1888.22 415.7 1880.57 416 1874.27 416C1872.77 416 1872.02 415.1 1872.02 413.3C1872.02 411.5 1872.77 410.6 1874.27 410.6C1882.67 410.6 1889.72 409.1 1895.42 406.1C1901.42 402.8 1907.12 397.1 1912.52 389C1917.92 380.9 1923.92 369.05 1930.52 353.45L2025.47 131.15C2026.07 130.25 2027.27 129.8 2029.07 129.8C2030.87 129.8 2031.92 130.25 2032.22 131.15L2139.32 354.35C2149.52 376.25 2158.22 391.1 2165.42 398.9C2172.62 406.7 2180.87 410.6 2190.17 410.6ZM1970.57 286.4H2069.57L2017.37 177.5L1970.57 286.4Z" fill="#3F3E3E"/>
<path d="M109.64 637.64H55.88V689H42.6V577H55.88V625.8H109.64V577H122.92V689H109.64V637.64ZM250.58 657.96H209.3L198.1 689H184.98L227.38 575.24H233.46L276.02 689H262.1L250.58 657.96ZM213.62 646.44H246.58L234.1 612.36L230.1 595.4H229.94L225.94 612.68L213.62 646.44ZM358.254 615.72L349.614 599.56H348.974L350.574 615.72V689H338.094V575.24H345.134L398.734 649.96L407.054 665.32H407.854L406.094 649.96V577H418.574V690.76H411.534L358.254 615.72ZM492.95 577C494.977 576.68 497.217 576.467 499.67 576.36C502.23 576.147 504.843 576.04 507.51 576.04C510.283 575.933 512.95 575.88 515.51 575.88C518.177 575.773 520.63 575.72 522.87 575.72C531.83 575.72 539.563 577.107 546.07 579.88C552.683 582.653 558.123 586.547 562.39 591.56C566.657 596.467 569.803 602.387 571.83 609.32C573.963 616.253 575.03 623.88 575.03 632.2C575.03 639.773 574.017 647.08 571.99 654.12C570.07 661.053 566.977 667.24 562.71 672.68C558.443 678.013 552.897 682.333 546.07 685.64C539.243 688.84 530.977 690.44 521.27 690.44C519.563 690.44 517.323 690.387 514.55 690.28C511.883 690.28 509.11 690.173 506.23 689.96C503.35 689.853 500.683 689.747 498.23 689.64C495.777 689.533 494.017 689.373 492.95 689.16V577ZM523.19 587.56C521.803 587.56 520.257 587.56 518.55 587.56C516.95 587.56 515.35 587.613 513.75 587.72C512.15 587.827 510.657 587.933 509.27 588.04C507.99 588.147 506.977 588.253 506.23 588.36V677.96C506.763 678.067 507.777 678.173 509.27 678.28C510.763 678.28 512.31 678.333 513.91 678.44C515.51 678.44 517.057 678.493 518.55 678.6C520.043 678.6 521.057 678.6 521.59 678.6C529.057 678.6 535.297 677.32 540.31 674.76C545.43 672.2 549.483 668.787 552.47 664.52C555.563 660.147 557.75 655.187 559.03 649.64C560.31 643.987 560.95 638.173 560.95 632.2C560.95 626.973 560.363 621.747 559.19 616.52C558.017 611.187 555.99 606.387 553.11 602.12C550.23 597.853 546.337 594.387 541.43 591.72C536.63 588.947 530.55 587.56 523.19 587.56ZM730.917 613.8L732.517 597H731.717L725.637 612.36L696.517 662.92H692.517L661.637 612.2L655.877 597H655.077L657.317 613.64V689H644.837V577H654.757L689.797 634.28L695.077 646.76H695.397L700.357 633.96L733.797 577H744.197V689H730.917V613.8ZM871.88 657.96H830.6L819.4 689H806.28L848.68 575.24H854.76L897.32 689H883.4L871.88 657.96ZM834.92 646.44H867.88L855.4 612.36L851.4 595.4H851.24L847.24 612.68L834.92 646.44ZM959.394 577C961.42 576.68 963.66 576.467 966.114 576.36C968.674 576.147 971.287 576.04 973.954 576.04C976.727 575.933 979.394 575.88 981.954 575.88C984.62 575.773 987.074 575.72 989.314 575.72C998.274 575.72 1006.01 577.107 1012.51 579.88C1019.13 582.653 1024.57 586.547 1028.83 591.56C1033.1 596.467 1036.25 602.387 1038.27 609.32C1040.41 616.253 1041.47 623.88 1041.47 632.2C1041.47 639.773 1040.46 647.08 1038.43 654.12C1036.51 661.053 1033.42 667.24 1029.15 672.68C1024.89 678.013 1019.34 682.333 1012.51 685.64C1005.69 688.84 997.42 690.44 987.714 690.44C986.007 690.44 983.767 690.387 980.994 690.28C978.327 690.28 975.554 690.173 972.674 689.96C969.794 689.853 967.127 689.747 964.674 689.64C962.22 689.533 960.46 689.373 959.394 689.16V577ZM989.634 587.56C988.247 587.56 986.7 587.56 984.994 587.56C983.394 587.56 981.794 587.613 980.194 587.72C978.594 587.827 977.1 587.933 975.714 588.04C974.434 588.147 973.42 588.253 972.674 588.36V677.96C973.207 678.067 974.22 678.173 975.714 678.28C977.207 678.28 978.754 678.333 980.354 678.44C981.954 678.44 983.5 678.493 984.994 678.6C986.487 678.6 987.5 678.6 988.034 678.6C995.5 678.6 1001.74 677.32 1006.75 674.76C1011.87 672.2 1015.93 668.787 1018.91 664.52C1022.01 660.147 1024.19 655.187 1025.47 649.64C1026.75 643.987 1027.39 638.173 1027.39 632.2C1027.39 626.973 1026.81 621.747 1025.63 616.52C1024.46 611.187 1022.43 606.387 1019.55 602.12C1016.67 597.853 1012.78 594.387 1007.87 591.72C1003.07 588.947 996.994 587.56 989.634 587.56ZM1111.28 577H1172.24V588.84H1124.56V625.48H1168.24V637.32H1124.56V677.16H1173.04V689H1111.28V577ZM1400.36 689H1334.12V577H1347.4V677.16H1400.36V689ZM1467.02 577H1480.3V689H1467.02V577ZM1577.9 615.72L1569.26 599.56H1568.62L1570.22 615.72V689H1557.74V575.24H1564.78L1618.38 649.96L1626.7 665.32H1627.5L1625.74 649.96V577H1638.22V690.76H1631.18L1577.9 615.72ZM1750.35 633.16H1787.95V682.44C1786.25 683.72 1784.17 684.893 1781.71 685.96C1779.37 687.027 1776.81 687.933 1774.03 688.68C1771.37 689.427 1768.54 689.96 1765.55 690.28C1762.67 690.707 1759.85 690.92 1757.07 690.92C1749.93 690.92 1743.37 689.8 1737.39 687.56C1731.42 685.213 1726.25 681.693 1721.87 677C1717.5 672.2 1714.09 666.173 1711.63 658.92C1709.18 651.56 1707.95 642.92 1707.95 633C1707.95 622.653 1709.45 613.8 1712.43 606.44C1715.42 599.08 1719.31 593.107 1724.11 588.52C1728.91 583.827 1734.3 580.413 1740.27 578.28C1746.25 576.147 1752.22 575.08 1758.19 575.08C1764.59 575.08 1769.87 575.453 1774.03 576.2C1778.19 576.84 1781.71 577.747 1784.59 578.92L1781.23 590.6C1776.11 588.147 1768.81 586.92 1759.31 586.92C1754.83 586.92 1750.35 587.72 1745.87 589.32C1741.5 590.813 1737.55 593.373 1734.03 597C1730.51 600.627 1727.63 605.373 1725.39 611.24C1723.15 617.107 1722.03 624.36 1722.03 633C1722.03 640.893 1722.94 647.72 1724.75 653.48C1726.57 659.24 1729.07 664.04 1732.27 667.88C1735.58 671.613 1739.53 674.44 1744.11 676.36C1748.7 678.173 1753.71 679.08 1759.15 679.08C1765.98 679.08 1771.79 677.747 1776.59 675.08V643.88L1750.35 640.68V633.16ZM1857.76 577H1918.72V588.84H1871.04V625.48H1914.72V637.32H1871.04V677.16H1919.52V689H1857.76V577ZM1990.74 578.12C1994.8 577.373 1999.44 576.787 2004.66 576.36C2010 575.933 2014.85 575.72 2019.22 575.72C2024.13 575.72 2028.77 576.253 2033.14 577.32C2037.62 578.387 2041.52 580.147 2044.82 582.6C2048.24 585.053 2050.96 588.253 2052.98 592.2C2055.01 596.147 2056.02 600.947 2056.02 606.6C2056.02 615.347 2053.62 622.44 2048.82 627.88C2044.02 633.32 2037.94 636.947 2030.58 638.76L2038.26 644.68L2066.1 689H2050.58L2019.7 640.68L2004.02 638.28V689H1990.74V578.12ZM2019.54 587.24C2018.16 587.24 2016.72 587.24 2015.22 587.24C2013.73 587.24 2012.29 587.293 2010.9 587.4C2009.52 587.507 2008.18 587.613 2006.9 587.72C2005.73 587.827 2004.77 587.987 2004.02 588.2V629.48H2016.5C2023.86 629.48 2029.94 627.667 2034.74 624.04C2039.54 620.413 2041.94 614.76 2041.94 607.08C2041.94 601.32 2039.97 596.573 2036.02 592.84C2032.08 589.107 2026.58 587.24 2019.54 587.24ZM2148.21 644.52L2111.25 577H2126.77L2153.01 625.96L2155.73 635.72H2155.89L2158.77 625.64L2183.89 577H2198.13L2161.49 644.36V689H2148.21V644.52Z" fill="#3F3E3E" fill-opacity="0.7"/>
</svg>
